<?xml version="1.0" standalone="no"?>
<!DOCTYPE svg PUBLIC "-//W3C//DTD SVG 20010904//EN"
 "http://www.w3.org/TR/2001/REC-SVG-20010904/DTD/svg10.dtd">
<svg version="1.0" xmlns="http://www.w3.org/2000/svg"
 width="1067.000000pt" height="1067.000000pt" viewBox="0 0 1067.000000 1067.000000"
 preserveAspectRatio="xMidYMid meet">
<metadata>
Created by potrace 1.14, written by Peter Selinger 2001-2017
</metadata>
<g transform="translate(0.000000,1067.000000) scale(0.100000,-0.100000)"
fill="#000000" stroke="none">
<path d="M1490 6738 l1 -3933 290 -305 c160 -168 328 -343 373 -390 45 -47
169 -177 276 -290 107 -113 238 -250 290 -305 53 -55 143 -150 200 -211 58
-61 110 -112 115 -113 6 0 152 114 325 255 l315 255 55 -58 c31 -32 240 -249
465 -483 226 -234 534 -553 685 -710 151 -157 311 -322 355 -368 l81 -83 125
128 c69 70 393 407 719 748 327 341 639 666 695 722 l100 102 303 -254 c167
-140 307 -255 311 -255 5 0 122 116 261 258 140 141 498 503 797 804 l543 548
0 3935 0 3935 -3840 0 -3840 0 0 -3932z m4075 3292 l-160 -160 155 -155 155
-155 160 160 161 160 39 -40 39 -40 -159 -160 -160 -160 155 -155 c85 -85 158
-154 162 -153 4 2 79 71 166 155 l159 152 36 -37 37 -38 -155 -154 c-85 -85
-155 -159 -155 -165 0 -5 62 -72 137 -147 l138 -138 -38 -37 -37 -38 -76 75
c-42 41 -105 103 -139 138 -35 34 -66 62 -71 62 -5 0 -75 -66 -156 -147 l-148
-148 142 -142 142 -143 -39 -40 -39 -40 -143 142 -143 143 -155 -155 c-85 -85
-155 -159 -155 -165 0 -5 62 -72 137 -147 l137 -138 -39 -40 -39 -40 -143 142
-143 143 -140 -140 -140 -140 -37 38 -38 37 140 140 140 140 -160 160 -160
160 -137 -137 -138 -137 -40 39 -40 39 137 138 138 138 -155 155 -155 155
-135 -135 -136 -135 -37 38 -37 38 130 129 c72 71 130 134 130 140 0 5 -66 76
-147 157 l-147 148 39 40 39 40 151 -150 150 -150 160 160 160 160 -150 150
-149 150 34 35 c19 19 39 35 44 35 6 0 77 -66 158 -147 l146 -146 153 150 152
150 -151 153 -152 154 37 38 37 38 154 -152 154 -153 156 162 157 161 40 -39
40 -39 -160 -160z m-853 -2331 c75 -16 136 -49 190 -104 l47 -46 98 12 c128
16 409 15 551 -1 l112 -13 48 46 c56 52 97 75 167 93 134 36 277 -6 372 -109
53 -57 78 -108 92 -181 6 -33 12 -60 13 -61 2 -1 44 -23 94 -49 575 -295 1125
-926 1482 -1703 73 -157 162 -382 162 -407 0 -12 -501 -560 -869 -951 -36 -39
-284 -305 -550 -593 -266 -287 -488 -522 -492 -522 -7 0 -312 259 -842 713
l-57 49 -33 -25 c-17 -14 -212 -187 -432 -385 l-400 -360 -35 37 c-19 20 -120
126 -224 236 -234 245 -351 368 -482 505 -55 58 -112 117 -125 132 -13 14
-265 279 -559 587 -294 309 -536 568 -538 575 -4 18 184 386 286 557 355 603
732 1088 1052 1354 117 97 201 152 325 212 92 44 95 47 95 79 0 50 36 138 80
192 87 111 229 161 372 131z m708 -4736 l0 -358 170 170 170 169 40 -39 40
-39 -210 -211 -210 -210 0 -303 c0 -166 2 -302 4 -302 2 0 82 80 177 177 96
98 253 258 349 356 l175 178 38 -39 39 -40 -189 -193 c-104 -107 -289 -297
-412 -424 -122 -126 -226 -231 -230 -233 -7 -2 -853 841 -859 856 -1 4 15 25
36 45 l39 38 362 -367 361 -367 0 316 0 316 -27 21 c-16 12 -110 103 -211 203
l-183 181 39 39 39 38 171 -166 172 -167 0 356 0 356 55 0 55 0 0 -357z"/>
<path d="M4975 9440 l-350 -350 355 -355 355 -355 347 347 c192 192 348 352
348 358 0 10 -690 705 -700 705 -3 0 -163 -158 -355 -350z"/>
<path d="M4600 7623 c-96 -12 -174 -59 -225 -136 -45 -69 -62 -137 -73 -288
-6 -81 -16 -139 -27 -162 -25 -53 -197 -230 -369 -379 -222 -194 -273 -251
-411 -458 -134 -202 -143 -212 -357 -389 -205 -168 -268 -254 -283 -382 -14
-113 45 -338 127 -489 111 -203 370 -542 672 -880 197 -219 717 -771 733 -777
31 -12 34 13 18 138 -8 68 -15 126 -15 130 0 4 57 -16 127 -43 103 -40 128
-47 138 -36 10 10 7 40 -16 143 -16 72 -28 133 -26 137 1 4 49 -22 107 -57
102 -63 133 -74 144 -56 3 5 -7 72 -23 150 -15 77 -27 141 -26 141 2 0 46 -18
99 -40 104 -43 124 -47 132 -26 3 8 -46 110 -109 228 -63 118 -153 297 -201
398 -48 101 -111 220 -141 265 -47 71 -310 378 -526 616 l-79 86 51 6 c67 8
96 28 122 85 21 46 22 58 23 502 0 323 4 469 12 503 26 102 50 132 202 245 37
28 78 69 95 97 l30 48 2 183 c1 104 6 191 12 202 14 27 71 52 118 52 110 -1
233 -126 278 -284 20 -70 17 -175 -8 -222 -19 -37 -56 -49 -205 -64 -124 -12
-197 -37 -267 -89 -87 -66 -142 -167 -166 -307 -15 -84 -7 -374 15 -574 36
-326 34 -316 77 -403 56 -112 101 -173 278 -377 241 -278 285 -356 300 -529 5
-54 7 -127 4 -164 -3 -36 -3 -77 1 -91 6 -26 8 -26 100 -26 l94 0 7 -77 c3
-43 7 -87 8 -98 2 -19 10 -20 170 -23 l167 -2 0 100 0 100 100 0 c95 0 100 1
104 23 3 12 10 105 15 207 8 161 12 193 34 247 44 109 153 262 352 498 111
131 185 233 204 280 23 60 32 196 38 581 6 422 1 489 -42 574 -26 52 -76 100
-133 128 -70 36 -133 46 -282 47 l-144 0 -9 45 c-14 69 8 243 39 307 46 96
167 177 237 159 38 -9 78 -46 98 -90 15 -33 19 -66 19 -164 0 -144 6 -160 81
-217 184 -141 222 -180 239 -244 10 -38 30 -631 30 -884 0 -194 2 -198 118
-268 50 -30 92 -59 92 -64 0 -6 -60 -63 -134 -127 -309 -271 -532 -523 -624
-703 -60 -120 -330 -757 -326 -770 4 -8 11 -15 18 -15 6 0 58 34 116 75 57 41
105 73 106 72 1 -1 -7 -58 -17 -127 -23 -158 -24 -190 -3 -190 9 0 65 34 126
76 75 52 108 71 104 58 -21 -70 -76 -285 -76 -297 0 -32 21 -26 139 33 67 33
123 60 125 60 3 0 4 -68 3 -152 -1 -104 1 -152 9 -155 11 -4 554 583 710 767
116 137 259 324 436 570 85 118 209 289 276 380 72 98 127 181 133 205 26 93
-13 271 -96 441 -68 141 -116 186 -284 274 -146 75 -165 95 -297 308 -121 193
-160 240 -320 382 -287 254 -412 372 -433 410 -17 31 -24 65 -31 172 -19 256
-63 346 -201 407 -101 45 -235 36 -344 -22 -44 -24 -78 -55 -134 -121 -42 -49
-87 -97 -101 -107 -16 -11 -59 -22 -115 -28 -98 -12 -316 -14 -353 -5 -16 5
-34 28 -58 77 -42 82 -120 164 -190 200 -82 41 -199 68 -264 60z m211 -95 c86
-42 125 -76 171 -149 96 -153 123 -265 116 -477 -4 -107 -2 -135 10 -144 11
-10 17 -8 28 7 20 27 19 295 -1 390 -8 38 -15 71 -15 72 0 2 66 3 148 3 81 0
176 5 211 10 35 6 65 9 67 7 2 -1 -4 -25 -13 -52 -21 -65 -26 -416 -5 -436 9
-10 15 -10 24 -1 9 9 12 52 10 155 -4 158 12 267 48 338 30 57 163 208 214
241 118 77 283 72 379 -12 76 -67 91 -119 113 -395 4 -57 13 -92 30 -121 24
-43 147 -160 421 -403 179 -158 205 -188 343 -406 122 -194 172 -244 319 -319
148 -75 186 -111 244 -230 93 -187 127 -380 82 -454 -24 -39 -390 -541 -569
-782 -154 -207 -246 -318 -449 -543 l-152 -168 -5 140 c-3 77 -8 142 -11 145
-3 4 -59 -9 -124 -28 l-117 -34 6 66 c3 37 9 107 12 155 l7 88 -34 -14 c-19
-8 -67 -29 -107 -47 -40 -18 -75 -30 -78 -27 -3 3 3 58 13 121 11 64 19 116
19 116 -1 0 -50 -16 -111 -35 -60 -19 -110 -33 -112 -32 -1 2 -5 39 -9 82 -6
72 -4 86 18 135 93 207 275 422 616 727 94 85 175 161 180 168 11 20 152 137
212 176 30 19 85 48 123 63 76 32 86 42 65 62 -13 13 -22 12 -69 -6 -74 -27
-158 -79 -242 -148 -38 -31 -75 -61 -81 -66 -8 -5 -45 11 -104 45 -72 42 -93
60 -101 84 -5 17 -12 199 -16 405 -4 206 -10 438 -13 516 -7 134 -9 144 -38
190 -17 29 -62 75 -109 112 -44 35 -104 84 -133 108 l-52 46 2 121 c1 107 -1
128 -21 172 -56 125 -162 166 -279 106 -44 -22 -132 -113 -157 -161 -38 -74
-58 -320 -31 -385 18 -43 42 -50 158 -41 178 12 327 -32 387 -115 54 -74 56
-89 55 -519 0 -422 -11 -586 -44 -649 -22 -44 -105 -152 -220 -286 -207 -242
-326 -431 -351 -555 -11 -59 -13 -61 -38 -55 -46 11 -51 28 -45 154 11 223 34
615 37 617 2 2 58 19 125 39 68 19 148 47 179 61 72 34 168 130 211 211 l32
61 -52 30 c-85 49 -197 82 -275 82 -98 0 -156 -24 -224 -91 -93 -93 -152 -244
-184 -471 -13 -89 -33 -487 -35 -675 l0 -33 -79 0 -78 0 -6 273 c-8 373 -34
561 -101 726 -109 268 -302 332 -583 194 -40 -19 -73 -40 -73 -45 0 -32 71
-136 131 -192 73 -70 150 -106 312 -148 45 -12 87 -26 93 -32 7 -7 18 -144 29
-374 20 -392 21 -381 -32 -396 -19 -6 -23 -1 -38 51 -37 127 -98 217 -345 504
-133 154 -188 232 -232 326 -29 61 -33 85 -59 342 -54 535 -33 709 105 840 66
61 131 86 271 100 144 16 183 27 215 61 78 83 62 301 -31 437 -44 64 -109 126
-156 149 -61 29 -149 30 -202 2 -83 -43 -86 -54 -83 -253 4 -231 2 -236 -168
-360 -95 -70 -118 -99 -152 -191 -21 -57 -22 -72 -22 -529 -1 -577 5 -549
-133 -562 l-62 -6 -63 58 c-104 96 -228 183 -310 216 -43 17 -85 29 -93 25
-34 -13 -12 -35 71 -70 96 -40 208 -122 343 -251 132 -126 595 -659 665 -765
58 -88 222 -417 213 -426 -2 -3 -40 11 -83 29 -121 52 -126 53 -120 25 3 -13
8 -82 11 -155 l6 -131 -127 49 -126 48 6 -107 c4 -59 9 -126 13 -149 3 -27 1
-43 -5 -43 -6 0 -70 22 -144 49 -73 27 -134 48 -135 47 0 0 5 -62 13 -136 8
-74 13 -138 12 -142 -4 -11 -197 194 -404 427 -437 492 -668 824 -742 1066
-30 98 -43 209 -32 268 23 120 76 186 294 359 182 146 193 158 356 409 92 140
206 264 365 398 142 120 367 350 395 406 17 32 25 72 31 158 5 64 11 134 14
156 13 95 91 201 171 231 26 9 67 13 120 11 68 -3 92 -9 155 -39z m1152 -1733
c64 -17 157 -61 157 -74 0 -5 -20 -36 -44 -68 -74 -101 -161 -147 -389 -209
l-49 -13 7 37 c4 20 18 58 32 84 52 95 119 135 210 122 38 -6 41 -8 32 -26
-21 -39 -70 -59 -131 -55 -52 3 -57 1 -61 -19 -5 -28 8 -34 74 -34 63 0 108
19 142 60 27 32 61 99 54 107 -2 2 -40 8 -83 15 -103 14 -150 2 -213 -57 -50
-47 -95 -126 -105 -185 -11 -63 -48 -813 -42 -846 8 -38 32 -62 83 -79 43 -15
40 0 35 -175 l-2 -79 -102 -3 -103 -3 -3 -97 -3 -98 -118 0 -118 0 -8 100 -7
100 -94 0 -94 0 0 83 c0 45 -3 98 -6 118 -6 34 -5 36 36 48 69 21 80 39 80
134 0 103 -28 635 -39 744 -10 99 -38 161 -102 225 -66 66 -131 81 -252 57
-53 -11 -55 -12 -46 -36 33 -88 105 -143 187 -143 61 0 83 10 80 34 -3 19 -8
21 -50 18 -62 -5 -112 12 -133 44 -20 31 -18 34 34 41 58 8 123 -19 161 -67
56 -71 89 -170 56 -170 -25 0 -231 67 -275 90 -57 28 -140 107 -169 159 l-23
40 48 25 c114 57 250 73 328 37 53 -24 125 -103 158 -172 77 -164 116 -460
117 -881 l0 -188 129 0 129 0 6 73 c3 39 8 185 10 322 7 343 35 518 109 678
78 168 198 227 370 182z"/>
</g>
</svg>
