<?xml version="1.0" standalone="no"?>
<!DOCTYPE svg PUBLIC "-//W3C//DTD SVG 20010904//EN"
 "http://www.w3.org/TR/2001/REC-SVG-20010904/DTD/svg10.dtd">
<svg version="1.0" xmlns="http://www.w3.org/2000/svg"
 width="512.000000pt" height="512.000000pt" viewBox="0 0 512.000000 512.000000"
 preserveAspectRatio="xMidYMid meet">

<g transform="translate(0.000000,512.000000) scale(0.100000,-0.100000)"
fill="#000000" stroke="none">
<path d="M2232 5104 c-229 -38 -439 -151 -604 -322 -122 -128 -198 -251 -253
-415 -52 -156 -56 -215 -53 -744 3 -486 3 -488 27 -546 48 -120 147 -210 272
-248 l68 -21 17 -51 c30 -93 87 -193 157 -278 l37 -46 0 -155 0 -155 -387
-138 c-214 -76 -419 -154 -458 -173 -92 -47 -201 -155 -244 -243 -67 -137 -64
-103 -68 -871 l-4 -698 1821 0 1821 0 -4 698 c-4 768 -1 734 -68 871 -43 88
-152 196 -244 243 -38 19 -244 97 -457 173 l-388 138 0 155 0 155 38 46 c69
85 126 185 156 278 l17 51 68 21 c125 38 224 128 272 248 24 57 24 62 27 513
l3 455 88 87 c112 111 196 230 293 416 43 81 78 150 78 154 0 3 -136 8 -302
10 -262 4 -317 8 -405 27 -149 31 -291 84 -433 159 -222 118 -293 151 -381
176 -165 47 -342 58 -507 30z m361 -169 c119 -21 207 -55 355 -137 154 -86
216 -115 349 -162 173 -60 325 -87 516 -93 92 -3 167 -9 167 -13 0 -15 -86
-139 -146 -210 -181 -214 -447 -365 -729 -414 -126 -22 -316 -21 -440 3 -55
11 -302 69 -549 130 -247 61 -453 111 -457 111 -5 0 -9 -117 -9 -261 l0 -261
-22 -6 c-13 -3 -47 -18 -76 -34 -30 -15 -56 -28 -59 -28 -3 0 -3 143 -1 318 4
312 5 318 32 407 84 275 291 500 556 605 141 56 346 74 513 45z m-377 -1094
c432 -108 500 -121 658 -122 94 -1 111 -3 75 -9 -67 -11 -129 -41 -193 -93
-64 -53 -105 -67 -196 -67 -92 0 -131 14 -201 70 -100 81 -143 92 -356 98
l-183 4 0 110 c0 99 2 109 18 104 9 -3 180 -46 378 -95z m1411 -278 c-2 -2
-28 9 -58 25 -30 16 -64 31 -77 34 -21 6 -22 11 -22 110 l0 103 78 41 77 41 3
-175 c1 -96 1 -177 -1 -179z m-327 182 l0 -25 -127 1 -128 1 75 13 c41 7 91
17 110 23 58 17 70 15 70 -13z m-1090 -227 c25 -15 58 -39 74 -53 27 -25 28
-28 25 -110 -3 -72 -7 -88 -27 -107 -22 -22 -29 -23 -242 -26 l-220 -3 0 166
0 167 173 -4 c167 -3 173 -4 217 -30z m1090 -134 l0 -165 -220 3 c-213 3 -220
4 -242 26 -20 19 -24 35 -27 107 l-3 85 33 27 c89 76 111 82 302 83 l157 0 0
-166z m-1650 -165 l0 -230 -41 23 c-148 83 -159 301 -21 405 24 18 48 33 53
33 5 0 9 -97 9 -231z m1882 198 c138 -104 127 -322 -21 -405 l-41 -23 0 230
c0 134 4 231 9 231 5 0 29 -15 53 -33z m-892 -80 c0 -119 54 -212 148 -259 44
-21 61 -23 280 -26 l232 -4 0 -34 c0 -169 -116 -403 -258 -522 -285 -237 -679
-237 -964 0 -142 119 -258 353 -258 522 l0 34 233 4 c218 3 235 5 279 26 94
47 148 140 148 259 l0 53 80 0 80 0 0 -53z m-295 -1162 c205 -51 430 -26 618
69 l88 45 -3 -91 -3 -91 -242 -138 -243 -139 -242 139 -243 138 -3 91 -3 91
88 -45 c51 -25 130 -55 188 -69z m1205 -1185 l0 -170 -990 0 -990 0 0 170 0
170 990 0 990 0 0 -170z m-2150 -575 l0 -245 -245 0 -245 0 0 245 0 245 245 0
245 0 0 -245z m2810 0 l0 -245 -245 0 -245 0 0 245 0 245 245 0 245 0 0 -245z"/>
<path d="M2234 2844 c14 -105 83 -199 183 -250 51 -25 69 -29 143 -29 74 0 92
4 143 29 100 51 169 145 183 250 l7 46 -85 0 -85 0 -6 -35 c-12 -74 -76 -125
-157 -125 -81 0 -145 51 -157 125 l-6 35 -85 0 -85 0 7 -46z"/>
<path d="M4622 3758 l3 -123 83 -3 82 -3 0 126 0 125 -85 0 -86 0 3 -122z"/>
<path d="M4290 3470 l0 -80 125 0 125 0 0 80 0 80 -125 0 -125 0 0 -80z"/>
<path d="M4870 3470 l0 -80 125 0 125 0 0 80 0 80 -125 0 -125 0 0 -80z"/>
<path d="M4620 3180 l0 -120 85 0 85 0 0 120 0 120 -85 0 -85 0 0 -120z"/>
<path d="M330 2605 l0 -125 85 0 86 0 -3 123 -3 122 -82 3 -83 3 0 -126z"/>
<path d="M0 2310 l0 -80 125 0 125 0 0 80 0 80 -125 0 -125 0 0 -80z"/>
<path d="M580 2310 l0 -80 125 0 125 0 0 80 0 80 -125 0 -125 0 0 -80z"/>
<path d="M330 2025 l0 -125 85 0 86 0 -3 123 -3 122 -82 3 -83 3 0 -126z"/>
</g>
</svg>
